HIERARCHY
ROOT root
{
  OFFSET 0 10 0
  CHANNELS 6 Xposition Yposition Zposition Zrotation Xrotation Yrotation
  JOINT foot_0_0
  {
    OFFSET 0 -7.5 0
    CHANNELS 3 Zrotation Xrotation Yrotation
      End Site
      {
        OFFSET 0 -7.5 0
      }
  }
}
MOTION
Frames:	399
Frame Time:	0.0333333
0 0 0 0 0 0 30 30 30
0 0 0 0 0 0 0 30 0
0 0 0 0 0 0 0 30 0
0 0 0 0 0 0 0 30 0
0 0 0 0 0 0 0 30 0
0 0 0 0 0 0 0 30 0
0 0 0 0 0 0 0 30 0
0 0 0 0 0 0 0 30 0
0 0 0 0 0 0 0 30 0
0 0 0 0 0 0 0 30 0
0 0 0 0 0 0 0 30 0
0 0 0 0 0 0 0 30 0
0 0 0 0 0 0 0 30 0
0 0 0 0 0 0 0 30 0
0 0 0 0 0 0 0 30 0
0 0 0 0 0 0 0 30 0
0 0 0 0 0 0 0 30 0
0 0 0 0 0 0 0 30 0
0 0 0 0 0 0 0 30 0
0 0 0 0 0 0 0 30 0
0 0 0 0 0 0 0 30 0
0 0 0 0 0 0 0 30 0
0 0 0 0 0 0 0 30 0
0 0 0 0 0 0 0 30 0
0 0 0 0 0 0 0 30 0
0 0 0 0 0 0 0 30 0
0 0 0 0 0 0 0 30 0
0 0 0 0 0 0 0 30 0
0 0 0 0 0 0 0 30 0
0 0 0 0 0 0 0 30 0
0 0 0 0 0 0 0 30 0
0 0 0 0 0 0 0 30 0
0 0 0 0 0 0 0 30 0
0 0 0 0 0 0 0 30 0
0 0 0 0 0 0 0 30 0
0 0 0 0 0 0 0 30 0
0 0 0 0 0 0 0 30 0
0 0 0 0 0 0 0 30 0
0 0 0 0 0 0 0 30 0
0 0 0 0 0 0 0 30 0
0 0 0 0 0 0 0 30 0
0 0 0 0 0 0 0 30 0
0 0 0 0 0 0 0 30 0
0 0 0 0 0 0 0 30 0
0 0 0 0 0 0 0 30 0
0 0 0 0 0 0 0 30 0
0 0 0 0 0 0 0 30 0
0 0 0 0 0 0 0 30 0
0 0 0 0 0 0 0 30 0
0 0 0 0 0 0 0 30 0
0 0 0 0 0 0 0 30 0
0 0 0 0 0 0 0 30 0
0 0 0 0 0 0 0 30 0
0 0 0 0 0 0 0 30 0
0 0 0 0 0 0 0 30 0
0 0 0 0 0 0 0 30 0
0 0 0 0 0 0 0 30 0
0 0 0 0 0 0 0 30 0
0 0 0 0 0 0 0 30 0
0 0 0 0 0 0 0 30 0
0 0 0 0 0 0 0 30 0
0 0 0 0 0 0 0 30 0
0 0 0 0 0 0 0 30 0
0 0 0 0 0 0 0 30 0
0 0 0 0 0 0 0 30 0
0 0 0 0 0 0 0 30 0
0 0 0 0 0 0 0 30 0
0 0 0 0 0 0 0 30 0
0 0 0 0 0 0 0 30 0
0 0 0 0 0 0 0 30 0
0 0 0 0 0 0 0 30 0
0 0 0 0 0 0 0 30 0
0 0 0 0 0 0 0 30 0
0 0 0 0 0 0 0 30 0
0 0 0 0 0 0 0 30 0
0 0 0 0 0 0 0 30 0
0 0 0 0 0 0 0 30 0
0 0 0 0 0 0 0 30 0
0 0 0 0 0 0 0 30 0
0 0 0 0 0 0 0 30 0
0 0 0 0 0 0 0 30 0
0 0 0 0 0 0 0 30 0
0 0 0 0 0 0 0 30 0
0 0 0 0 0 0 0 30 0
0 0 0 0 0 0 0 30 0
0 0 0 0 0 0 0 30 0
0 0 0 0 0 0 0 30 0
0 0 0 0 0 0 0 30 0
0 0 0 0 0 0 0 30 0
0 0 0 0 0 0 0 30 0
0 0 0 0 0 0 0 30 0
0 0 0 0 0 0 0 30 0
0 0 0 0 0 0 0 30 0
0 0 0 0 0 0 0 30 0
0 0 0 0 0 0 0 30 0
0 0 0 0 0 0 0 30 0
0 0 0 0 0 0 0 30 0
0 0 0 0 0 0 0 30 0
0 0 0 0 0 0 0 30 0
0 0 0 0 0 0 0 30 0
0 0 0 0 0 0 0 30 0
0 0 0 0 0 0 0 30 0
0 0 0 0 0 0 0 30 0
0 0 0 0 0 0 0 30 0
0 0 0 0 0 0 0 30 0
0 0 0 0 0 0 0 30 0
0 0 0 0 0 0 0 30 0
0 0 0 0 0 0 0 30 0
0 0 0 0 0 0 0 30 0
0 0 0 0 0 0 0 30 0
0 0 0 0 0 0 0 30 0
0 0 0 0 0 0 0 30 0
0 0 0 0 0 0 0 30 0
0 0 0 0 0 0 0 30 0
0 0 0 0 0 0 0 30 0
0 0 0 0 0 0 0 30 0
0 0 0 0 0 0 0 30 0
0 0 0 0 0 0 0 30 0
0 0 0 0 0 0 0 30 0
0 0 0 0 0 0 0 30 0
0 0 0 0 0 0 0 30 0
0 0 0 0 0 0 0 30 0
0 0 0 0 0 0 0 30 0
0 0 0 0 0 0 0 30 0
0 0 0 0 0 0 0 30 0
0 0 0 0 0 0 0 30 0
0 0 0 0 0 0 0 30 0
0 0 0 0 0 0 0 30 0
0 0 0 0 0 0 0 30 0
0 0 0 0 0 0 0 30 0
0 0 0 0 0 0 0 30 0
0 0 0 0 0 0 0 30 0
0 0 0 0 0 0 0 30 0
0 0 0 0 0 0 0 30 0
0 0 0 0 0 0 0 30 0
0 0 0 0 0 0 0 30 0
0 0 0 0 0 0 0 30 0
0 0 0 0 0 0 0 30 0
0 0 0 0 0 0 0 30 0
0 0 0 0 0 0 0 30 0
0 0 0 0 0 0 0 30 0
0 0 0 0 0 0 0 30 0
0 0 0 0 0 0 0 30 0
0 0 0 0 0 0 0 30 0
0 0 0 0 0 0 0 30 0
0 0 0 0 0 0 0 30 0
0 0 0 0 0 0 0 30 0
0 0 0 0 0 0 0 30 0
0 0 0 0 0 0 0 30 0
0 0 0 0 0 0 0 30 0
0 0 0 0 0 0 0 30 0
0 0 0 0 0 0 0 30 0
0 0 0 0 0 0 0 30 0
0 0 0 0 0 0 0 30 0
0 0 0 0 0 0 0 30 0
0 0 0 0 0 0 0 30 0
0 0 0 0 0 0 0 30 0
0 0 0 0 0 0 0 30 0
0 0 0 0 0 0 0 30 0
0 0 0 0 0 0 0 30 0
0 0 0 0 0 0 0 30 0
0 0 0 0 0 0 0 30 0
0 0 0 0 0 0 0 30 0
0 0 0 0 0 0 0 30 0
0 0 0 0 0 0 0 30 0
0 0 0 0 0 0 0 30 0
0 0 0 0 0 0 0 30 0
0 0 0 0 0 0 0 30 0
0 0 0 0 0 0 0 30 0
0 0 0 0 0 0 0 30 0
0 0 0 0 0 0 0 30 0
0 0 0 0 0 0 0 30 0
0 0 0 0 0 0 0 30 0
0 0 0 0 0 0 0 30 0
0 0 0 0 0 0 0 30 0
0 0 0 0 0 0 0 30 0
0 0 0 0 0 0 0 30 0
0 0 0 0 0 0 0 30 0
0 0 0 0 0 0 0 30 0
0 0 0 0 0 0 0 30 0
0 0 0 0 0 0 0 30 0
0 0 0 0 0 0 0 30 0
0 0 0 0 0 0 0 30 0
0 0 0 0 0 0 0 30 0
0 0 0 0 0 0 0 30 0
0 0 0 0 0 0 0 30 0
0 0 0 0 0 0 0 30 0
0 0 0 0 0 0 0 30 0
0 0 0 0 0 0 0 30 0
0 0 0 0 0 0 0 30 0
0 0 0 0 0 0 0 30 0
0 0 0 0 0 0 0 30 0
0 0 0 0 0 0 0 30 0
0 0 0 0 0 0 0 30 0
0 0 0 0 0 0 0 30 0
0 0 0 0 0 0 0 30 0
0 0 0 0 0 0 0 30 0
0 0 0 0 0 0 0 30 0
0 0 0 0 0 0 0 30 0
0 0 0 0 0 0 0 30 0
0 0 0 0 0 0 0 30 0
0 0 0 0 0 0 0 30 0
0 0 0 0 0 0 0 30 0
0 0 0 0 0 0 0 30 0
0 0 0 0 0 0 0 30 0
0 0 0 0 0 0 0 30 0
0 0 0 0 0 0 0 30 0
0 0 0 0 0 0 0 30 0
0 0 0 0 0 0 0 30 0
0 0 0 0 0 0 0 30 0
0 0 0 0 0 0 0 30 0
0 0 0 0 0 0 0 30 0
0 0 0 0 0 0 0 30 0
0 0 0 0 0 0 0 30 0
0 0 0 0 0 0 0 30 0
0 0 0 0 0 0 0 30 0
0 0 0 0 0 0 0 30 0
0 0 0 0 0 0 0 30 0
0 0 0 0 0 0 0 30 0
0 0 0 0 0 0 0 30 0
0 0 0 0 0 0 0 30 0
0 0 0 0 0 0 0 30 0
0 0 0 0 0 0 0 30 0
0 0 0 0 0 0 0 30 0
0 0 0 0 0 0 0 30 0
0 0 0 0 0 0 0 30 0
0 0 0 0 0 0 0 30 0
0 0 0 0 0 0 0 30 0
0 0 0 0 0 0 0 30 0
0 0 0 0 0 0 0 30 0
0 0 0 0 0 0 0 30 0
0 0 0 0 0 0 0 30 0
0 0 0 0 0 0 0 30 0
0 0 0 0 0 0 0 30 0
0 0 0 0 0 0 0 30 0
0 0 0 0 0 0 0 30 0
0 0 0 0 0 0 0 30 0
0 0 0 0 0 0 0 30 0
0 0 0 0 0 0 0 30 0
0 0 0 0 0 0 0 30 0
0 0 0 0 0 0 0 30 0
0 0 0 0 0 0 0 30 0
0 0 0 0 0 0 0 30 0
0 0 0 0 0 0 0 30 0
0 0 0 0 0 0 0 30 0
0 0 0 0 0 0 0 30 0
0 0 0 0 0 0 0 30 0
0 0 0 0 0 0 0 30 0
0 0 0 0 0 0 0 30 0
0 0 0 0 0 0 0 30 0
0 0 0 0 0 0 0 30 0
0 0 0 0 0 0 0 30 0
0 0 0 0 0 0 0 30 0
0 0 0 0 0 0 0 30 0
0 0 0 0 0 0 0 30 0
0 0 0 0 0 0 0 30 0
0 0 0 0 0 0 0 30 0
0 0 0 0 0 0 0 30 0
0 0 0 0 0 0 0 30 0
0 0 0 0 0 0 0 30 0
0 0 0 0 0 0 0 30 0
0 0 0 0 0 0 0 30 0
0 0 0 0 0 0 0 30 0
0 0 0 0 0 0 0 30 0
0 0 0 0 0 0 0 30 0
0 0 0 0 0 0 0 30 0
0 0 0 0 0 0 0 30 0
0 0 0 0 0 0 0 30 0
0 0 0 0 0 0 0 30 0
0 0 0 0 0 0 0 30 0
0 0 0 0 0 0 0 30 0
0 0 0 0 0 0 0 30 0
0 0 0 0 0 0 0 30 0
0 0 0 0 0 0 0 30 0
0 0 0 0 0 0 0 30 0
0 0 0 0 0 0 0 30 0
0 0 0 0 0 0 0 30 0
0 0 0 0 0 0 0 30 0
0 0 0 0 0 0 0 30 0
0 0 0 0 0 0 0 30 0
0 0 0 0 0 0 0 30 0
0 0 0 0 0 0 0 30 0
0 0 0 0 0 0 0 30 0
0 0 0 0 0 0 0 30 0
0 0 0 0 0 0 0 30 0
0 0 0 0 0 0 0 30 0
0 0 0 0 0 0 0 30 0
0 0 0 0 0 0 0 30 0
0 0 0 0 0 0 0 30 0
0 0 0 0 0 0 0 30 0
0 0 0 0 0 0 0 30 0
0 0 0 0 0 0 0 30 0
0 0 0 0 0 0 0 30 0
0 0 0 0 0 0 0 30 0
0 0 0 0 0 0 0 30 0
0 0 0 0 0 0 0 30 0
0 0 0 0 0 0 0 30 0
0 0 0 0 0 0 0 30 0
0 0 0 0 0 0 0 30 0
0 0 0 0 0 0 0 30 0
0 0 0 0 0 0 0 30 0
0 0 0 0 0 0 0 30 0
0 0 0 0 0 0 0 30 0
0 0 0 0 0 0 0 30 0
0 0 0 0 0 0 0 30 0
0 0 0 0 0 0 0 30 0
0 0 0 0 0 0 0 30 0
0 0 0 0 0 0 0 30 0
0 0 0 0 0 0 0 30 0
0 0 0 0 0 0 0 30 0
0 0 0 0 0 0 0 30 0
0 0 0 0 0 0 0 30 0
0 0 0 0 0 0 0 30 0
0 0 0 0 0 0 0 30 0
0 0 0 0 0 0 0 30 0
0 0 0 0 0 0 0 30 0
0 0 0 0 0 0 0 30 0
0 0 0 0 0 0 0 30 0
0 0 0 0 0 0 0 30 0
0 0 0 0 0 0 0 30 0
0 0 0 0 0 0 0 30 0
0 0 0 0 0 0 0 30 0
0 0 0 0 0 0 0 30 0
0 0 0 0 0 0 0 30 0
0 0 0 0 0 0 0 30 0
0 0 0 0 0 0 0 30 0
0 0 0 0 0 0 0 30 0
0 0 0 0 0 0 0 30 0
0 0 0 0 0 0 0 30 0
0 0 0 0 0 0 0 30 0
0 0 0 0 0 0 0 30 0
0 0 0 0 0 0 0 30 0
0 0 0 0 0 0 0 30 0
0 0 0 0 0 0 0 30 0
0 0 0 0 0 0 0 30 0
0 0 0 0 0 0 0 30 0
0 0 0 0 0 0 0 30 0
0 0 0 0 0 0 0 30 0
0 0 0 0 0 0 0 30 0
0 0 0 0 0 0 0 30 0
0 0 0 0 0 0 0 30 0
0 0 0 0 0 0 0 30 0
0 0 0 0 0 0 0 30 0
0 0 0 0 0 0 0 30 0
0 0 0 0 0 0 0 30 0
0 0 0 0 0 0 0 30 0
0 0 0 0 0 0 0 30 0
0 0 0 0 0 0 0 30 0
0 0 0 0 0 0 0 30 0
0 0 0 0 0 0 0 30 0
0 0 0 0 0 0 0 30 0
0 0 0 0 0 0 0 30 0
0 0 0 0 0 0 0 30 0
0 0 0 0 0 0 0 30 0
0 0 0 0 0 0 0 30 0
0 0 0 0 0 0 0 30 0
0 0 0 0 0 0 0 30 0
0 0 0 0 0 0 0 30 0
0 0 0 0 0 0 0 30 0
0 0 0 0 0 0 0 30 0
0 0 0 0 0 0 0 30 0
0 0 0 0 0 0 0 30 0
0 0 0 0 0 0 0 30 0
0 0 0 0 0 0 0 30 0
0 0 0 0 0 0 0 30 0
0 0 0 0 0 0 0 30 0
0 0 0 0 0 0 0 30 0
0 0 0 0 0 0 0 30 0
0 0 0 0 0 0 0 30 0
0 0 0 0 0 0 0 30 0
0 0 0 0 0 0 0 30 0
0 0 0 0 0 0 0 30 0
0 0 0 0 0 0 0 30 0
0 0 0 0 0 0 0 30 0
0 0 0 0 0 0 0 30 0
0 0 0 0 0 0 0 30 0
0 0 0 0 0 0 0 30 0
0 0 0 0 0 0 0 30 0
0 0 0 0 0 0 0 30 0
0 0 0 0 0 0 0 30 0
0 0 0 0 0 0 0 30 0
0 0 0 0 0 0 0 30 0
0 0 0 0 0 0 0 30 0
0 0 0 0 0 0 0 30 0
0 0 0 0 0 0 0 30 0
0 0 0 0 0 0 0 30 0
0 0 0 0 0 0 0 30 0
0 0 0 0 0 0 0 30 0
0 0 0 0 0 0 0 30 0
0 0 0 0 0 0 0 30 0
0 0 0 0 0 0 0 30 0
0 0 0 0 0 0 0 30 0
0 0 0 0 0 0 0 30 0
0 0 0 0 0 0 0 30 0
0 0 0 0 0 0 0 30 0
0 0 0 0 0 0 0 30 0
0 0 0 0 0 0 0 30 0
0 0 0 0 0 0 0 30 0
0 0 0 0 0 0 0 30 0
